<svg xmlns="http://www.w3.org/2000/svg" width="40" height="24" viewBox="0 0 40 24">
    <path fill="#436EAB" fill-rule="evenodd" d="M34.19 15.104c1.317 1.358 2.708 2.636 3.89 4.132.522.664 1.016 1.35 1.394 2.121.536 1.097.05 2.303-.88 2.369l-5.788-.003c-1.492.13-2.683-.504-3.684-1.582-.802-.861-1.544-1.778-2.314-2.67-.316-.363-.646-.706-1.041-.977-.79-.541-1.476-.376-1.928.495-.46.884-.564 1.864-.609 2.85-.062 1.44-.474 1.818-1.843 1.884-2.925.145-5.702-.322-8.28-1.88-2.275-1.374-4.038-3.313-5.573-5.509C4.546 12.059 2.257 7.361.201 2.532-.262 1.444.076.86 1.213.839 3.101.8 4.99.803 6.88.836c.767.012 1.275.477 1.572 1.242 1.021 2.652 2.271 5.175 3.84 7.514.418.623.844 1.245 1.45 1.684.671.485 1.182.324 1.498-.465.2-.5.288-1.04.333-1.576.15-1.845.17-3.686-.093-5.524-.16-1.147-.773-1.89-1.857-2.106-.553-.111-.47-.328-.202-.662.465-.575.902-.933 1.774-.933h6.54c1.03.215 1.26.703 1.4 1.797l.006 7.672c-.011.423.2 1.68.923 1.96.578.2.959-.289 1.306-.676 1.566-1.755 2.683-3.829 3.682-5.976.443-.945.824-1.925 1.193-2.905.274-.727.703-1.085 1.479-1.07l6.295.007c.186 0 .375.002.556.035 1.06.191 1.351.673 1.024 1.767-.516 1.715-1.52 3.145-2.503 4.582-1.05 1.534-2.172 3.015-3.213 4.558-.957 1.409-.88 2.12.307 3.343z"/>
</svg>
